<svg xmlns="http://www.w3.org/2000/svg" xmlns:xlink="http://www.w3.org/1999/xlink" width="744" height="60" viewBox="0 0 558.07 45"><g id="graph0" class="graph" transform="scale(1 1) rotate(0) translate(4 41)"><title>%3</title><polygon fill="#fff" stroke="none" points="-4 4 -4 -41 554.067 -41 554.067 4 -4 4"/><g id="node1" class="node"><title>call_graph_with_parameters.yaml</title><ellipse cx="131.938" cy="-18.5" fill="none" stroke="red" rx="131.877" ry="18"/><text x="131.938" y="-14.8" font-family="Times,serif" font-size="14" text-anchor="middle">call_graph_with_parameters.yaml</text></g><g id="node2" class="node"><title>build_all-cleanup</title><polygon fill="none" stroke="#000" points="299.877 -.5 299.877 -36.5 404.877 -36.5 404.877 -.5 299.877 -.5"/><text x="307.877" y="-14.8" font-family="Times,serif" font-size="14" text-anchor="start">same-node:True</text></g><g id="edge1" class="edge"><title>call_graph_with_parameters.yaml-&gt;build_all-cleanup</title><path fill="none" stroke="#00f" d="M264.102,-18.5C276.606,-18.5 288.71,-18.5 299.721,-18.5"/></g><g id="node3" class="node"><title>cleanup.yml</title><ellipse cx="495.472" cy="-18.5" fill="none" stroke="#000" rx="54.691" ry="18"/><text x="495.472" y="-14.8" font-family="Times,serif" font-size="14" text-anchor="middle">cleanup.yml</text></g><g id="edge2" class="edge"><title>build_all-cleanup-&gt;cleanup.yml</title><path fill="none" stroke="#00f" d="M405.114,-18.5C413.48,-18.5 422.227,-18.5 430.836,-18.5"/><polygon fill="#00f" stroke="#00f" points="430.847 -22 440.847 -18.5 430.847 -15 430.847 -22"/></g></g></svg>