<svg xmlns="http://www.w3.org/2000/svg" xmlns:xlink="http://www.w3.org/1999/xlink" width="768" height="95pt" viewBox="0 0 576 94.58"><g id="graph0" class="graph" transform="scale(0.58022 0.58022) rotate(0) translate(4 159)"><title>%3</title><polygon fill="#fff" stroke="none" points="-4 4 -4 -159 988.727 -159 988.727 4 -4 4"/><g id="node1" class="node"><title>test/test_analysis/depends_on/a.yml</title><ellipse cx="137.788" cy="-83" fill="none" stroke="#000" rx="137.576" ry="18"/><text x="137.788" y="-79.3" font-family="Times,serif" font-size="14" text-anchor="middle">test/test_analysis/depends_on/a.yml</text></g><g id="node2" class="node"><title>test/test_analysis/depends_on/b.yml</title><ellipse cx="492.363" cy="-83" fill="none" stroke="#000" rx="137.576" ry="18"/><text x="492.363" y="-79.3" font-family="Times,serif" font-size="14" text-anchor="middle">test/test_analysis/depends_on/b.yml</text></g><g id="edge1" class="edge"><title>test/test_analysis/depends_on/a.yml-&gt;test/test_analysis/depends_on/b.yml</title><path fill="none" stroke="green" d="M275.607,-83C298.117,-83 321.533,-83 344.28,-83"/><polygon fill="green" stroke="green" points="344.33 -86.5 354.33 -83 344.33 -79.5 344.33 -86.5"/><text x="293.576" y="-87.8" font-family="Times,serif" font-size="14" font-weight="bold" text-anchor="start">include</text></g><g id="node4" class="node"><title>test/test_analysis/depends_on/c.yml</title><ellipse cx="846.939" cy="-29" fill="none" stroke="#000" rx="137.576" ry="18"/><text x="846.939" y="-25.3" font-family="Times,serif" font-size="14" text-anchor="middle">test/test_analysis/depends_on/c.yml</text></g><g id="edge3" class="edge"><title>test/test_analysis/depends_on/b.yml-&gt;test/test_analysis/depends_on/c.yml</title><path fill="none" stroke="green" d="M582.789,-69.3037C632.804,-61.6435 695.254,-52.0786 746.765,-44.1893"/><polygon fill="green" stroke="green" points="747.56 -47.608 756.914 -42.635 746.5 -40.689 747.56 -47.608"/><text x="648.151" y="-64.8" font-family="Times,serif" font-size="14" font-weight="bold" text-anchor="start">include</text></g><g id="node5" class="node"><title>test/test_analysis/depends_on/e.yml</title><ellipse cx="846.939" cy="-94" fill="none" stroke="#000" rx="137.576" ry="18"/><text x="846.939" y="-90.3" font-family="Times,serif" font-size="14" text-anchor="middle">test/test_analysis/depends_on/e.yml</text></g><g id="edge4" class="edge"><title>test/test_analysis/depends_on/b.yml-&gt;test/test_analysis/depends_on/e.yml</title><path fill="none" stroke="green" d="M626.657,-87.1586C651.423,-87.9313 677.395,-88.7416 702.451,-89.5233"/><polygon fill="green" stroke="green" points="702.645 -93.031 712.749 -89.845 702.863 -86.034 702.645 -93.031"/><text x="648.151" y="-94.8" font-family="Times,serif" font-size="14" font-weight="bold" text-anchor="start">include</text></g><g id="node3" class="node"><title>test/test_analysis/depends_on/d.yml</title><ellipse cx="492.363" cy="-18" fill="none" stroke="#000" rx="137.576" ry="18"/><text x="492.363" y="-14.3" font-family="Times,serif" font-size="14" text-anchor="middle">test/test_analysis/depends_on/d.yml</text></g><g id="edge2" class="edge"><title>test/test_analysis/depends_on/d.yml-&gt;test/test_analysis/depends_on/c.yml</title><path fill="none" stroke="green" d="M630.374,-17.636C650.753,-17.8884 671.504,-18.3163 691.151,-19 698.909,-19.27 706.883,-19.606 714.926,-19.9897"/><polygon fill="green" stroke="green" points="714.977 -23.497 725.139 -20.5 715.326 -16.505 714.977 -23.497"/><text x="648.151" y="-23.8" font-family="Times,serif" font-size="14" font-weight="bold" text-anchor="start">include</text></g><g id="node6" class="node"><title>test/test_analysis/depends_on/f.yml</title><ellipse cx="137.788" cy="-137" fill="none" stroke="#000" rx="136.476" ry="18"/><text x="137.788" y="-133.3" font-family="Times,serif" font-size="14" text-anchor="middle">test/test_analysis/depends_on/f.yml</text></g></g></svg>