<svg xmlns="http://www.w3.org/2000/svg" xmlns:xlink="http://www.w3.org/1999/xlink" width="768" height="95pt" viewBox="0 0 576 94.58"><g id="graph0" class="graph" transform="scale(0.58022 0.58022) rotate(0) translate(4 159)"><title>%3</title><polygon fill="#fff" stroke="none" points="-4 4 -4 -159 988.727 -159 988.727 4 -4 4"/><g id="node1" class="node"><title>test/test_analysis/depends_on/a.yml</title><ellipse cx="846.939" cy="-29" fill="none" stroke="#000" rx="137.576" ry="18"/><text x="846.939" y="-25.3" font-family="Times,serif" font-size="14" text-anchor="middle">test/test_analysis/depends_on/a.yml</text></g><g id="node2" class="node"><title>test/test_analysis/depends_on/d.yml</title><ellipse cx="492.363" cy="-94" fill="none" stroke="#000" rx="137.576" ry="18"/><text x="492.363" y="-90.3" font-family="Times,serif" font-size="14" text-anchor="middle">test/test_analysis/depends_on/d.yml</text></g><g id="node3" class="node"><title>test/test_analysis/depends_on/b.yml</title><ellipse cx="492.363" cy="-29" fill="none" stroke="#000" rx="137.576" ry="18"/><text x="492.363" y="-25.3" font-family="Times,serif" font-size="14" text-anchor="middle">test/test_analysis/depends_on/b.yml</text></g><g id="edge1" class="edge"><title>test/test_analysis/depends_on/b.yml-&gt;test/test_analysis/depends_on/a.yml</title><path fill="none" stroke="green" d="M630.183,-29C652.693,-29 676.108,-29 698.856,-29"/><polygon fill="green" stroke="green" points="698.906 -32.5 708.906 -29 698.906 -25.5 698.906 -32.5"/><text x="648.151" y="-33.8" font-family="Times,serif" font-size="14" font-weight="bold" text-anchor="start">include</text></g><g id="node4" class="node"><title>test/test_analysis/depends_on/c.yml</title><ellipse cx="137.788" cy="-83" fill="none" stroke="#000" rx="137.576" ry="18"/><text x="137.788" y="-79.3" font-family="Times,serif" font-size="14" text-anchor="middle">test/test_analysis/depends_on/c.yml</text></g><g id="edge2" class="edge"><title>test/test_analysis/depends_on/c.yml-&gt;test/test_analysis/depends_on/d.yml</title><path fill="none" stroke="green" d="M272.081,-87.1586C296.848,-87.9313 322.82,-88.7416 347.875,-89.5233"/><polygon fill="green" stroke="green" points="348.069 -93.031 358.174 -89.845 348.288 -86.034 348.069 -93.031"/><text x="293.576" y="-93.8" font-family="Times,serif" font-size="14" font-weight="bold" text-anchor="start">include</text></g><g id="edge3" class="edge"><title>test/test_analysis/depends_on/c.yml-&gt;test/test_analysis/depends_on/b.yml</title><path fill="none" stroke="green" d="M228.213,-69.3037C278.228,-61.6435 340.679,-52.0786 392.19,-44.1893"/><polygon fill="green" stroke="green" points="392.984 -47.608 402.339 -42.635 391.924 -40.689 392.984 -47.608"/><text x="293.576" y="-63.8" font-family="Times,serif" font-size="14" font-weight="bold" text-anchor="start">include</text></g><g id="node5" class="node"><title>test/test_analysis/depends_on/e.yml</title><ellipse cx="137.788" cy="-18" fill="none" stroke="#000" rx="137.576" ry="18"/><text x="137.788" y="-14.3" font-family="Times,serif" font-size="14" text-anchor="middle">test/test_analysis/depends_on/e.yml</text></g><g id="edge4" class="edge"><title>test/test_analysis/depends_on/e.yml-&gt;test/test_analysis/depends_on/b.yml</title><path fill="none" stroke="green" d="M275.798,-17.636C296.177,-17.8884 316.929,-18.3163 336.576,-19 344.334,-19.27 352.308,-19.606 360.35,-19.9897"/><polygon fill="green" stroke="green" points="360.401 -23.497 370.563 -20.5 360.75 -16.505 360.401 -23.497"/><text x="293.576" y="-23.8" font-family="Times,serif" font-size="14" font-weight="bold" text-anchor="start">include</text></g><g id="node6" class="node"><title>test/test_analysis/depends_on/f.yml</title><ellipse cx="137.788" cy="-137" fill="none" stroke="#000" rx="136.476" ry="18"/><text x="137.788" y="-133.3" font-family="Times,serif" font-size="14" text-anchor="middle">test/test_analysis/depends_on/f.yml</text></g></g></svg>