<svg xmlns="http://www.w3.org/2000/svg" xmlns:xlink="http://www.w3.org/1999/xlink" width="768" height="299pt" viewBox="0 0 576 299.25"><g id="graph0" class="graph" transform="scale(0.594939 0.594939) rotate(0) translate(4 499)"><title>%3</title><polygon fill="#fff" stroke="none" points="-4 4 -4 -499 964.166 -499 964.166 4 -4 4"/><g id="clust1" class="cluster"><title>cluster_legend_wrapper</title></g><g id="clust2" class="cluster"><title>cluster_legend</title><polygon fill="none" stroke="#000" points="693.53 -302 693.53 -479 866.53 -479 866.53 -302 693.53 -302"/><text x="780.03" y="-463.8" font-family="Times,serif" font-size="14" text-anchor="middle">Legend</text></g><g id="node1" class="node"><title>maxscale_jobs/build_all.yaml</title><ellipse cx="343.53" cy="-430" fill="none" stroke="red" rx="116.979" ry="18"/><text x="343.53" y="-426.3" font-family="Times,serif" font-size="14" text-anchor="middle">maxscale_jobs/build_all.yaml</text></g><g id="node2" class="node"><title>maxscale_jobs/parametrized_triggerred_subjobs_killer.yaml</title><ellipse cx="225.53" cy="-328" fill="none" stroke="#000" rx="225.56" ry="18"/><text x="225.53" y="-324.3" font-family="Times,serif" font-size="14" text-anchor="middle">maxscale_jobs/parametrized_triggerred_subjobs_killer.yaml</text></g><g id="edge1" class="edge"><title>maxscale_jobs/build_all.yaml-&gt;maxscale_jobs/parametrized_triggerred_subjobs_killer.yaml</title><path fill="none" stroke="green" d="M323.513,-412.036C304.272,-395.731 275.02,-370.941 253.484,-352.69"/><polygon fill="green" stroke="green" points="255.537 -349.842 245.645 -346.047 251.011 -355.182 255.537 -349.842"/><text x="322.53" y="-382.8" font-family="Times,serif" font-size="14" text-anchor="start">call-order:1</text><text x="302.53" y="-368.8" font-family="Times,serif" font-size="14" text-anchor="start">same-node:</text><text x="369.53" y="-368.8" fill="red" font-family="Times,serif" font-size="14" text-anchor="start">not set</text></g><g id="node3" class="node"><title>maxscale_jobs/build.yaml</title><ellipse cx="573.53" cy="-328" fill="none" stroke="#000" rx="103.982" ry="18"/><text x="573.53" y="-324.3" font-family="Times,serif" font-size="14" text-anchor="middle">maxscale_jobs/build.yaml</text></g><g id="edge2" class="edge"><title>maxscale_jobs/build_all.yaml-&gt;maxscale_jobs/build.yaml</title><path fill="none" stroke="#00f" d="M380.739,-412.822C420.69,-395.452 484.222,-367.83 527.341,-349.082"/><polygon fill="#00f" stroke="#00f" points="528.98 -352.186 536.755 -344.989 526.189 -345.767 528.98 -352.186"/><text x="506.03" y="-382.8" font-family="Times,serif" font-size="14" text-anchor="start">call-order:2</text><text x="493.53" y="-367.8" font-family="Times,serif" font-size="14" text-anchor="start">same-node:True</text></g><g id="node5" class="node"><title>maxscale_jobs/cleanup.yaml</title><ellipse cx="573.53" cy="-222" fill="none" stroke="#000" rx="113.18" ry="18"/><text x="573.53" y="-218.3" font-family="Times,serif" font-size="14" text-anchor="middle">maxscale_jobs/cleanup.yaml</text></g><g id="edge6" class="edge"><title>maxscale_jobs/build.yaml-&gt;maxscale_jobs/cleanup.yaml</title><path fill="none" stroke="green" d="M573.53,-309.827C573.53,-293.643 573.53,-269.131 573.53,-250.273"/><polygon fill="green" stroke="green" points="577.03 -250.199 573.53 -240.199 570.03 -250.199 577.03 -250.199"/><text x="593.53" y="-275.8" font-family="Times,serif" font-size="14" text-anchor="start">call-order:1</text><text x="573.53" y="-261.8" font-family="Times,serif" font-size="14" text-anchor="start">same-node:</text><text x="640.53" y="-261.8" fill="red" font-family="Times,serif" font-size="14" text-anchor="start">not set</text></g><g id="node4" class="node"><title>maxscale_jobs/remove_lock.yaml</title><ellipse cx="803.53" cy="-18" fill="none" stroke="#000" rx="131.877" ry="18"/><text x="803.53" y="-14.3" font-family="Times,serif" font-size="14" text-anchor="middle">maxscale_jobs/remove_lock.yaml</text></g><g id="node6" class="node"><title>maxscale_jobs/destroy.yaml</title><ellipse cx="517.53" cy="-120" fill="none" stroke="#000" rx="111.581" ry="18"/><text x="517.53" y="-116.3" font-family="Times,serif" font-size="14" text-anchor="middle">maxscale_jobs/destroy.yaml</text></g><g id="edge3" class="edge"><title>maxscale_jobs/cleanup.yaml-&gt;maxscale_jobs/destroy.yaml</title><path fill="none" stroke="#00f" d="M564.03,-204.036C555.261,-188.377 542.11,-164.893 532.029,-146.891"/><polygon fill="#00f" stroke="#00f" points="535.016 -145.062 527.076 -138.047 528.909 -148.482 535.016 -145.062"/><text x="567.03" y="-174.8" font-family="Times,serif" font-size="14" text-anchor="start">call-order:1</text><text x="554.53" y="-159.8" font-family="Times,serif" font-size="14" text-anchor="start">same-node:True</text></g><g id="node7" class="node"><title>maxscale_jobs/smart_remove_lock.yaml</title><ellipse cx="803.53" cy="-120" fill="none" stroke="#000" rx="156.772" ry="18"/><text x="803.53" y="-116.3" font-family="Times,serif" font-size="14" text-anchor="middle">maxscale_jobs/smart_remove_lock.yaml</text></g><g id="edge4" class="edge"><title>maxscale_jobs/cleanup.yaml-&gt;maxscale_jobs/smart_remove_lock.yaml</title><path fill="none" stroke="#00f" d="M610.483,-204.933C650.032,-187.738 712.897,-160.406 756.079,-141.631"/><polygon fill="#00f" stroke="#00f" points="757.745 -144.723 765.52 -137.526 754.954 -138.304 757.745 -144.723"/><text x="736.03" y="-174.8" font-family="Times,serif" font-size="14" text-anchor="start">call-order:2</text><text x="723.53" y="-159.8" font-family="Times,serif" font-size="14" text-anchor="start">same-node:True</text></g><g id="edge5" class="edge"><title>maxscale_jobs/smart_remove_lock.yaml-&gt;maxscale_jobs/remove_lock.yaml</title><path fill="none" stroke="#00f" d="M803.53,-101.581C803.53,-86.3816 803.53,-64.0669 803.53,-46.4644"/><polygon fill="#00f" stroke="#00f" points="807.03 -46.219 803.53 -36.219 800.03 -46.219 807.03 -46.219"/><text x="816.03" y="-72.8" font-family="Times,serif" font-size="14" text-anchor="start">call-order:1</text><text x="803.53" y="-57.8" font-family="Times,serif" font-size="14" text-anchor="start">same-node:True</text></g><g id="node8" class="node"><title>publishers-1</title><ellipse cx="800.53" cy="-430" fill="none" stroke="#000" rx="27" ry="18"/></g><g id="node9" class="node"><title>publishers-2</title><ellipse cx="800.53" cy="-328" fill="none" stroke="#000" rx="27" ry="18"/></g><g id="edge7" class="edge"><title>publishers-1-&gt;publishers-2</title><path fill="none" stroke="green" d="M800.53,-411.581C800.53,-396.382 800.53,-374.067 800.53,-356.464"/><polygon fill="green" stroke="green" points="804.03 -356.219 800.53 -346.219 797.03 -356.219 804.03 -356.219"/><text x="832.53" y="-375.3" font-family="Times,serif" font-size="14" text-anchor="middle">publishers</text></g><g id="node10" class="node"><title>builders-1</title><ellipse cx="728.53" cy="-430" fill="none" stroke="#000" rx="27" ry="18"/></g><g id="node11" class="node"><title>builders-2</title><ellipse cx="728.53" cy="-328" fill="none" stroke="#000" rx="27" ry="18"/></g><g id="edge8" class="edge"><title>builders-1-&gt;builders-2</title><path fill="none" stroke="#00f" d="M728.53,-411.581C728.53,-396.382 728.53,-374.067 728.53,-356.464"/><polygon fill="#00f" stroke="#00f" points="732.03 -356.219 728.53 -346.219 725.03 -356.219 732.03 -356.219"/><text x="754.53" y="-375.3" font-family="Times,serif" font-size="14" text-anchor="middle">builders</text></g></g></svg>