<svg xmlns="http://www.w3.org/2000/svg" xmlns:xlink="http://www.w3.org/1999/xlink" width="768" height="118pt" viewBox="0 0 576 118.12"><g id="graph0" class="graph" transform="scale(0.435876 0.435876) rotate(0) translate(4 267)"><title>%3</title><polygon fill="#fff" stroke="none" points="-4 4 -4 -267 1317.48 -267 1317.48 4 -4 4"/><g id="clust1" class="cluster"><title>cluster_legend_wrapper</title></g><g id="clust2" class="cluster"><title>cluster_legend</title><polygon fill="none" stroke="#000" points="1119.48 -85 1119.48 -247 1297.48 -247 1297.48 -85 1119.48 -85"/><text x="1208.48" y="-231.8" font-family="Times,serif" font-size="14" text-anchor="middle">Legend</text></g><g id="node1" class="node"><title>maxscale_jobs/include/job_branches/on_push_maxscale_branches.yaml</title><ellipse cx="266.476" cy="-18" fill="none" stroke="#000" rx="266.453" ry="18"/><text x="266.476" y="-14.3" font-family="Times,serif" font-size="14" text-anchor="middle">maxscale_jobs/include/job_branches/on_push_maxscale_branches.yaml</text></g><g id="node2" class="node"><title>maxscale_jobs/include/branches_list.yaml</title><ellipse cx="522.476" cy="-111" fill="none" stroke="#000" rx="160.572" ry="18"/><text x="522.476" y="-107.3" font-family="Times,serif" font-size="14" text-anchor="middle">maxscale_jobs/include/branches_list.yaml</text></g><g id="edge2" class="edge"><title>maxscale_jobs/include/branches_list.yaml-&gt;maxscale_jobs/include/job_branches/on_push_maxscale_branches.yaml</title><path fill="none" stroke="green" d="M476.709,-93.731C433.743,-78.4581 369.341,-55.5651 323.146,-39.1445"/><polygon fill="green" stroke="green" points="324.174 -35.795 313.58 -35.744 321.83 -42.391 324.174 -35.795"/><text x="402.476" y="-58.8" font-family="Times,serif" font-size="14" font-weight="bold" text-anchor="start">include</text></g><g id="node3" class="node"><title>maxscale_jobs/include/job_branches/run_test_branches.yaml</title><ellipse cx="778.476" cy="-18" fill="none" stroke="#000" rx="227.46" ry="18"/><text x="778.476" y="-14.3" font-family="Times,serif" font-size="14" text-anchor="middle">maxscale_jobs/include/job_branches/run_test_branches.yaml</text></g><g id="edge1" class="edge"><title>maxscale_jobs/include/branches_list.yaml-&gt;maxscale_jobs/include/job_branches/run_test_branches.yaml</title><path fill="none" stroke="green" d="M568.244,-93.731C611.21,-78.4581 675.612,-55.5651 721.806,-39.1445"/><polygon fill="green" stroke="green" points="723.123 -42.391 731.373 -35.744 720.778 -35.795 723.123 -42.391"/><text x="673.476" y="-58.8" font-family="Times,serif" font-size="14" font-weight="bold" text-anchor="start">include</text></g><g id="node4" class="node"><title>maxscale_jobs/print_branch_list.yaml</title><ellipse cx="790.476" cy="-198" fill="none" stroke="#000" rx="145.674" ry="18"/><text x="790.476" y="-194.3" font-family="Times,serif" font-size="14" text-anchor="middle">maxscale_jobs/print_branch_list.yaml</text></g><g id="edge3" class="edge"><title>maxscale_jobs/print_branch_list.yaml-&gt;maxscale_jobs/include/branches_list.yaml</title><path fill="none" stroke="green" d="M740.068,-181.012C695.618,-166.914 630.738,-146.337 583.393,-131.321"/><polygon fill="green" stroke="green" points="584.16 -127.892 573.57 -128.205 582.044 -134.565 584.16 -127.892"/><text x="673.476" y="-151.8" font-family="Times,serif" font-size="14" font-weight="bold" text-anchor="start">include</text></g><g id="node5" class="node"><title>maxscale_jobs/include/slave_for_branches_jobs.yaml</title><ellipse cx="902.476" cy="-111" fill="none" stroke="#000" rx="201.464" ry="18"/><text x="902.476" y="-107.3" font-family="Times,serif" font-size="14" text-anchor="middle">maxscale_jobs/include/slave_for_branches_jobs.yaml</text></g><g id="edge4" class="edge"><title>maxscale_jobs/print_branch_list.yaml-&gt;maxscale_jobs/include/slave_for_branches_jobs.yaml</title><path fill="none" stroke="green" d="M812.604,-180.207C829.597,-167.31 853.255,-149.355 872.033,-135.104"/><polygon fill="green" stroke="green" points="874.162 -137.883 880.011 -129.049 869.93 -132.307 874.162 -137.883"/><text x="853.476" y="-151.8" font-family="Times,serif" font-size="14" font-weight="bold" text-anchor="start">include</text></g><g id="node6" class="node"><title>include-raw-1</title><ellipse cx="1226.48" cy="-198" fill="none" stroke="#000" rx="27" ry="18"/></g><g id="node7" class="node"><title>include-raw-2</title><ellipse cx="1226.48" cy="-111" fill="none" stroke="#000" rx="27" ry="18"/></g><g id="edge5" class="edge"><title>include-raw-1-&gt;include-raw-2</title><path fill="none" stroke="red" d="M1226.48,-179.799C1226.48,-168.163 1226.48,-152.548 1226.48,-139.237"/><polygon fill="red" stroke="red" points="1229.98 -139.175 1226.48 -129.175 1222.98 -139.175 1229.98 -139.175"/><text x="1262.98" y="-150.8" font-family="Times,serif" font-size="14" text-anchor="middle">include-raw</text></g><g id="node8" class="node"><title>include-1</title><ellipse cx="1154.48" cy="-198" fill="none" stroke="#000" rx="27" ry="18"/></g><g id="node9" class="node"><title>include-2</title><ellipse cx="1154.48" cy="-111" fill="none" stroke="#000" rx="27" ry="18"/></g><g id="edge6" class="edge"><title>include-1-&gt;include-2</title><path fill="none" stroke="green" d="M1154.48,-179.799C1154.48,-168.163 1154.48,-152.548 1154.48,-139.237"/><polygon fill="green" stroke="green" points="1157.98 -139.175 1154.48 -129.175 1150.98 -139.175 1157.98 -139.175"/><text x="1178.48" y="-150.8" font-family="Times,serif" font-size="14" text-anchor="middle">include</text></g></g></svg>