<svg xmlns="http://www.w3.org/2000/svg" xmlns:xlink="http://www.w3.org/1999/xlink" width="768" height="118pt" viewBox="0 0 576 118.26"><g id="graph0" class="graph" transform="scale(0.482691 0.482691) rotate(0) translate(4 241)"><title>%3</title><polygon fill="#fff" stroke="none" points="-4 4 -4 -241 1189.31 -241 1189.31 4 -4 4"/><g id="clust1" class="cluster"><title>cluster_legend_wrapper</title></g><g id="clust2" class="cluster"><title>cluster_legend</title><polygon fill="none" stroke="#000" points="68.991 -92 68.991 -221 456.072 -221 456.072 -92 68.991 -92"/><text x="262.531" y="-205.8" font-family="Times,serif" font-size="14" text-anchor="middle">Legend</text></g><g id="node1" class="node"><title>maxscale_jobs/build.yaml</title><ellipse cx="103.991" cy="-58" fill="none" stroke="red" rx="103.982" ry="18"/><text x="103.991" y="-54.3" font-family="Times,serif" font-size="14" text-anchor="middle">maxscale_jobs/build.yaml</text></g><g id="node2" class="node"><title>maxscale_jobs/cleanup.yaml</title><ellipse cx="421.072" cy="-58" fill="none" stroke="#000" rx="113.18" ry="18"/><text x="421.072" y="-54.3" font-family="Times,serif" font-size="14" text-anchor="middle">maxscale_jobs/cleanup.yaml</text></g><g id="edge1" class="edge"><title>maxscale_jobs/build.yaml-&gt;maxscale_jobs/cleanup.yaml</title><path fill="none" stroke="green" d="M208.16,-58C236.737,-58 268.035,-58 297.597,-58"/><polygon fill="green" stroke="green" points="297.974 -61.5 307.974 -58 297.974 -54.5 297.974 -61.5"/></g><g id="node3" class="node"><title>maxscale_jobs/destroy.yaml</title><ellipse cx="727.798" cy="-72" fill="none" stroke="#000" rx="111.581" ry="18"/><text x="727.798" y="-68.3" font-family="Times,serif" font-size="14" text-anchor="middle">maxscale_jobs/destroy.yaml</text></g><g id="edge2" class="edge"><title>maxscale_jobs/cleanup.yaml-&gt;maxscale_jobs/destroy.yaml</title><path fill="none" stroke="#00f" d="M529.935,-62.9556C555.896,-64.1483 583.746,-65.4278 610.089,-66.6381"/><polygon fill="#00f" stroke="#00f" points="609.955 -70.135 620.105 -67.098 610.276 -63.143 609.955 -70.135"/></g><g id="node5" class="node"><title>maxscale_jobs/smart_remove_lock.yaml</title><ellipse cx="727.798" cy="-18" fill="none" stroke="#000" rx="156.772" ry="18"/><text x="727.798" y="-14.3" font-family="Times,serif" font-size="14" text-anchor="middle">maxscale_jobs/smart_remove_lock.yaml</text></g><g id="edge3" class="edge"><title>maxscale_jobs/cleanup.yaml-&gt;maxscale_jobs/smart_remove_lock.yaml</title><path fill="none" stroke="#00f" d="M508.986,-46.5911C541.568,-42.3142 579.081,-37.3901 613.693,-32.8467"/><polygon fill="#00f" stroke="#00f" points="614.391 -36.285 623.851 -31.513 613.48 -29.345 614.391 -36.285"/></g><g id="node4" class="node"><title>maxscale_jobs/remove_lock.yaml</title><ellipse cx="1053.37" cy="-18" fill="none" stroke="#000" rx="131.877" ry="18"/><text x="1053.37" y="-14.3" font-family="Times,serif" font-size="14" text-anchor="middle">maxscale_jobs/remove_lock.yaml</text></g><g id="edge4" class="edge"><title>maxscale_jobs/smart_remove_lock.yaml-&gt;maxscale_jobs/remove_lock.yaml</title><path fill="none" stroke="#00f" d="M884.898,-18C893.61,-18 902.344,-18 910.998,-18"/><polygon fill="#00f" stroke="#00f" points="911.115 -21.5 921.115 -18 911.115 -14.5 911.115 -21.5"/></g><g id="node6" class="node"><title>publishers-1</title><ellipse cx="103.991" cy="-172" fill="none" stroke="#000" rx="27" ry="18"/></g><g id="node7" class="node"><title>publishers-2</title><ellipse cx="421.072" cy="-172" fill="none" stroke="#000" rx="27" ry="18"/></g><g id="edge5" class="edge"><title>publishers-1-&gt;publishers-2</title><path fill="none" stroke="green" d="M131.043,-172C187.189,-172 319.698,-172 383.922,-172"/><polygon fill="green" stroke="green" points="383.989 -175.5 393.989 -172 383.989 -168.5 383.989 -175.5"/><text x="257.982" y="-175.8" font-family="Times,serif" font-size="14" text-anchor="middle">publishers</text></g><g id="node8" class="node"><title>builders-1</title><ellipse cx="103.991" cy="-118" fill="none" stroke="#000" rx="27" ry="18"/></g><g id="node9" class="node"><title>builders-2</title><ellipse cx="421.072" cy="-118" fill="none" stroke="#000" rx="27" ry="18"/></g><g id="edge6" class="edge"><title>builders-1-&gt;builders-2</title><path fill="none" stroke="#00f" d="M131.043,-118C187.189,-118 319.698,-118 383.922,-118"/><polygon fill="#00f" stroke="#00f" points="383.989 -121.5 393.989 -118 383.989 -114.5 383.989 -121.5"/><text x="257.982" y="-121.8" font-family="Times,serif" font-size="14" text-anchor="middle">builders</text></g></g></svg>